<?xml version="1.0" encoding="UTF-8" standalone="no"?>
<svg
   xmlns:dc="http://purl.org/dc/elements/1.1/"
   xmlns:cc="http://creativecommons.org/ns#"
   xmlns:rdf="http://www.w3.org/1999/02/22-rdf-syntax-ns#"
   xmlns:svg="http://www.w3.org/2000/svg"
   xmlns="http://www.w3.org/2000/svg"
   xmlns:sodipodi="http://sodipodi.sourceforge.net/DTD/sodipodi-0.dtd"
   xmlns:inkscape="http://www.inkscape.org/namespaces/inkscape"
   width="900"
   height="600"
   viewBox="0 0 7200 4800"
   version="1.1"
   id="svg8"
   sodipodi:docname="Canada.svg"
   inkscape:version="0.92.4 5da689c313, 2019-01-14">
  <metadata
     id="metadata14">
    <rdf:RDF>
      <cc:Work
         rdf:about="">
        <dc:format>image/svg+xml</dc:format>
        <dc:type
           rdf:resource="http://purl.org/dc/dcmitype/StillImage" />
        <dc:title>Flag of Canada</dc:title>
      </cc:Work>
    </rdf:RDF>
  </metadata>
  <defs
     id="defs12" />
  <sodipodi:namedview
     pagecolor="#ffffff"
     bordercolor="#666666"
     borderopacity="1"
     objecttolerance="10"
     gridtolerance="10"
     guidetolerance="10"
     inkscape:pageopacity="0"
     inkscape:pageshadow="2"
     inkscape:window-width="2684"
     inkscape:window-height="2121"
     id="namedview10"
     showgrid="false"
     inkscape:zoom="0.27583333"
     inkscape:cx="-840.63444"
     inkscape:cy="300"
     inkscape:window-x="2560"
     inkscape:window-y="18"
     inkscape:window-maximized="0"
     inkscape:current-layer="svg8"
     fit-margin-top="0"
     fit-margin-left="0"
     fit-margin-right="0"
     fit-margin-bottom="0" />
  <title
     id="title2">Flag of Canada</title>
  <path
     d="m 0,0 h 1800 l 74.25,99 h 3451.5 L 5400,0 H 7200 V 4800 H 5400 l -74.25,-99 H 1874.25 L 1800,4800 H 0 Z"
     id="path4"
     inkscape:connector-curvature="0"
     style="fill:#ff0000;stroke-width:0.86602539"
     clip-path="none" />
  <path
     d="M 1800,0 H 5400 V 4800 H 1800 Z m 1867.5,4430 -33.75,-863 a 71.25,95 0 0 1 83.25,-98 l 644.25,151 -87,-320 a 48.75,65 0 0 1 15,-73 L 4995,2465 4836,2366 a 48.75,65 0 0 1 -25.5,-79 l 139.5,-572 -406.5,115 a 48.75,65 0 0 1 -54.75,-38 L 4410,1545 4092.75,1999 a 48.75,65 0 0 1 -83.25,-57 l 153,-1052 -245.25,189 A 48.75,65 0 0 1 3849,1052 l -249,-652 -249,652 a 48.75,65 0 0 1 -68.25,27 l -245.25,-189 153,1052 a 48.75,65 0 0 1 -83.25,57 L 2790,1545 l -78.75,247 a 48.75,65 0 0 1 -54.75,38 l -406.5,-115 139.5,572 a 48.75,65 0 0 1 -25.5,79 l -159,99 705.75,762 a 48.75,65 0 0 1 15,73 l -87,320 644.25,-151 a 71.25,95 0 0 1 83.25,98 l -33.75,863 z"
     id="path6"
     inkscape:connector-curvature="0"
     style="fill:#ffffff;stroke-width:0.86602539" />
</svg>
